<svg width="125px" height="31.83px" xmlns="http://www.w3.org/2000/svg" xmlns:xlink="http://www.w3.org/1999/xlink" viewBox="0 0 161 41">
  <title>
    Rinnai Logo
  </title>
  <defs>
    <path d="M.00813333.14015454h7.99088889v8.6992691H.00813333z"/>
    <path d="M.4962871.28634104h30.2818415V31H.4962871z"/>
  </defs>
  <g fill="none" fill-rule="evenodd">
    <path fill="#CF000E" d="M40 1c-2.2094958 0-4 1.79114698-4 4 0 2.20885302 1.7905042 4 4 4 2.2104748 0 4-1.79114698 4-4 0-2.20885302-1.7895252-4-4-4M43.1620112 11h-6.3250381C36.3748095 11 36 11.4077987 36 11.9103831v27.180336C36 39.5922013 36.3748095 40 36.8369731 40h6.3250381C43.6251905 40 44 39.5922013 44 39.0907191v-27.180336C44 11.4077987 43.6251905 11 43.1620112 11M67.928786 10c-6.4334384 0-8.305004 2.715335-9.4193714 3.8337414v-2.1878478c0-.5107946-.4022273-.9269975-.8989669-.9269975H50.897868c-.4956407 0-.897868.4162029-.897868.9269975v27.425996C50 39.5849099 50.4022273 40 50.897868 40h6.8587442c.4956407 0 .898967-.4150901.898967-.9281104V23.5588694c0-3.9795238 2.3792951-6.9363455 6.3499157-6.9363455 4.2552568 0 6.3389259 3.0402849 6.3389259 6.9363455v15.5130202c0 .5130203.4033263.9281104.898967.9281104h6.8598432C79.5977727 40 80 39.5849099 80 39.0718896V21.4077454C80 12.8477632 74.1094586 10 67.928786 10M102.927687 10c-6.4334383 0-8.303905 2.715335-9.4171734 3.8337414v-2.1878478c0-.5107946-.4033263-.9269975-.9000659-.9269975H85.896769c-.4945417 0-.896769.4162029-.896769.9269975v27.425996C85 39.5849099 85.4022273 40 85.896769 40h6.8598432c.4956407 0 .897868-.4150901.897868-.9281104V23.5588694c0-3.9795238 2.3803941-6.9363455 6.3499158-6.9363455 4.255257 0 6.340025 3.0402849 6.340025 6.9363455v15.5130202c0 .5130203.403326.9281104.898967.9281104h6.858744c.495641 0 .897868-.4150901.897868-.9281104V21.4077454C115 12.8477632 109.10836 10 102.927687 10"/>
    <g transform="translate(153)">
      <path fill="#CF000E" d="M4.00431111 8.83942364c2.20684445 0 3.9952-1.94751819 3.9952-4.35027273 0-2.40275455-1.78835555-4.3492091-3.9952-4.3492091-2.20782222 0-3.99617778 1.94645455-3.99617778 4.3492091 0 2.40275454 1.78835556 4.35027273 3.99617778 4.35027273"/>
    </g>
    <path fill="#CF000E" d="M160.162011 11h-6.324022c-.462164 0-.837989.4077987-.837989.9103831v27.180336c0 .5014822.375825.9092809.837989.9092809h6.324022c.463179 0 .837989-.4077987.837989-.9092809v-27.180336C161 11.4077987 160.62519 11 160.162011 11M23.6795875 24.773711c1.8303062-.6102077 6.8891928-2.2492043 6.8891928-10.4987848C30.5687803 6.0264163 24.9301487 3 14.9823008 3H.9129319C.40870916 3 0 3.38325328 0 3.85536138V39.1446386C0 39.6156762.40870917 40 .9129319 40h6.94361337c.50422272 0 .91293189-.3843238.91293189-.8553614V25.5530641H14.192648l9.6313204 13.3892425C24.2704388 39.6017592 25.0456534 40 25.8797311 40h7.3878625c.5764132 0 .92737-.5973613.6163956-1.0534113L23.6795875 24.773711zm-9.6746347-5.0914877H8.76947716V8.87084081h5.23547564c4.2547957 0 7.7943504.70976795 7.7943504 5.40408539 0 4.6964586-3.5395547 5.4072971-7.7943504 5.4072971z"/>
    <g transform="translate(117 10)">
      <path fill="#CF000E" d="M10.36795 1.08411429c-5.91435714 1.6275-8.11757143 5.30432142-8.91028571 7.63485714-.14503572.42514286.31332142.78496428.72185714.78385714l7.77325-.04760714c.28674997-.00110714.59121427-.08635714.76392857-.30667857C12.3508429 7.05382857 14.8031643 6.6309 17.0694857 6.75932857 22.6827 7.0804 22.2298786 11.6274357 22.2298786 12.0038643 3.39737857 10.2922214-1.32237143 18.6887929 1.07016429 24.8799357 3.81145 31.9778286 17.5998071 32.8104 22.0914857 27.8537214c.5480357 1.5632857.6698214 2.2696429 1.9087143 2.2696429h5.8446071c.5159286 0 .9333215-.4129643.9333215-.92225V11.9894714c0-12.43321426-13.9477857-12.68453569-20.4101786-10.90535711zM22.3118071 18.62015c0 4.2126786-2.7036428 6.7059643-7.3171071 6.8332857-3.4199643.0941072-6.30517857-1.3584643-6.38489286-3.6148214-.17935714-5.1105714 10.44810716-4.898 12.82957146-4.7441072.8303571.0531429.8724285.0531429.8724285.4760715V18.62015z"/>
    </g>
  </g>
</svg>